# xmcd CD database file
#
# Track frame offsets:
#	150
#	23359
#	42814
#	64105
#	86278
#	114830
#	134254
#	160766
#	179130
#	205395
#	226012
#	249899
#	280269
#
# Disc length: 4083 seconds
#
# Revision: 2
# Processed by: cddbd v1.5.1PL2 Copyright (c) Steve Scherf et al.
# Submitted via: CDex 1.51
#
DISCID=9d0ff10d
DTITLE=森山 直太朗 - 傑作撰 2001〜2005 空盤
DYEAR=2005
DGENRE=Data
TTITLE0=時の行方〜序・春の空〜(エディット)
TTITLE1=さくら(独唱)
TTITLE2=愛し君へ
TTITLE3=陽は西から昇る
TTITLE4=太陽 〜邂逅編〜
TTITLE5=高校3年生 〜リミックス〜
TTITLE6=今が人生
TTITLE7=風唄
TTITLE8=声
TTITLE9=星屑のセレナーデ
TTITLE10=レスター
TTITLE11=生きとし生ける物へ
TTITLE12=夏の終わり
EXTD=YEAR: 2005
EXTT0=
EXTT1=
EXTT2=
EXTT3=
EXTT4=
EXTT5=
EXTT6=
EXTT7=
EXTT8=
EXTT9=
EXTT10=
EXTT11=
EXTT12=
PLAYORDER=
